<svg height="416pt" viewBox="-51 0 416 416.42667" width="416pt" xmlns="http://www.w3.org/2000/svg"><path d="m307.414062 180.90625c0 84.832031-68.769531 153.601562-153.601562 153.601562s-153.597656-68.769531-153.597656-153.601562 68.765625-153.597656 153.597656-153.597656 153.601562 68.765625 153.601562 153.597656zm0 0" fill="#efefd2"/><path d="m177.707031 259.414062c-22.621093 0-40.960937-18.339843-40.960937-40.960937v-170.667969c0-22.621094 18.339844-40.957031 40.960937-40.957031 22.621094 0 40.960938 18.335937 40.960938 40.957031v170.667969c0 22.621094-18.339844 40.960937-40.960938 40.960937zm0 0" fill="#a9ba5a"/><path d="m177.707031 266.238281c-26.347656 0-47.785156-21.4375-47.785156-47.785156v-170.667969c0-26.347656 21.4375-47.785156 47.785156-47.785156 26.347657 0 47.785157 21.4375 47.785157 47.785156v170.667969c0 26.347656-21.4375 47.785156-47.785157 47.785156zm0-252.585937c-18.820312 0-34.132812 15.316406-34.132812 34.132812v170.667969c0 18.820313 15.3125 34.132813 34.132812 34.132813 18.820313 0 34.132813-15.3125 34.132813-34.132813v-170.667969c0-18.816406-15.3125-34.132812-34.132813-34.132812zm0 0" fill="#4c241d"/><path d="m239.148438 273.066406c-22.625 0-40.960938-18.335937-40.960938-40.960937v-95.570313c0-22.625 18.335938-40.960937 40.960938-40.960937 22.621093 0 40.957031 18.335937 40.957031 40.960937v95.570313c0 22.625-18.335938 40.960937-40.957031 40.960937zm0 0" fill="#a9ba5a"/><path d="m239.148438 279.894531c-26.347657 0-47.789063-21.4375-47.789063-47.789062v-95.570313c0-26.351562 21.441406-47.789062 47.789063-47.789062 26.347656 0 47.785156 21.4375 47.785156 47.789062v95.570313c0 26.351562-21.4375 47.789062-47.785156 47.789062zm0-177.496093c-18.820313 0-34.136719 15.316406-34.136719 34.136718v95.570313c0 18.820312 15.316406 34.132812 34.136719 34.132812 18.816406 0 34.132812-15.3125 34.132812-34.132812v-95.570313c0-18.820312-15.3125-34.136718-34.132812-34.136718zm0 0" fill="#4c241d"/><path d="m208.425781 409.601562c-40.921875 0-75.636719-30.050781-81.507812-70.546874l-17.476563-120.601563h197.972656l-17.480468 120.601563c-5.867188 40.496093-40.582032 70.546874-81.507813 70.546874zm0 0" fill="#fff"/><path d="m208.425781 416.425781c-44.003906 0-81.953125-32.84375-88.257812-76.394531l-17.480469-120.597656c-.289062-1.964844.292969-3.949219 1.59375-5.445313 1.292969-1.5 3.179688-2.363281 5.160156-2.363281h197.972656c1.980469 0 3.867188.863281 5.160157 2.363281 1.300781 1.496094 1.878906 3.480469 1.59375 5.445313l-17.480469 120.597656c-6.308594 43.550781-44.253906 76.394531-88.261719 76.394531zm-91.097656-191.144531 16.347656 112.792969c5.34375 36.886719 37.480469 64.699219 74.75 64.699219 37.273438 0 69.40625-27.8125 74.753907-64.699219l16.347656-112.792969zm0 0" fill="#4c241d"/><path d="m239.148438 218.453125c-3.773438 0-6.828126-3.054687-6.828126-6.828125v-116.050781c0-3.769531 3.054688-6.828125 6.828126-6.828125 3.773437 0 6.824218 3.058594 6.824218 6.828125v116.050781c0 3.773438-3.050781 6.828125-6.824218 6.828125zm0 0" fill="#4c241d"/><path d="m273.28125 91.203125c0 16.441406-15.28125 9.921875-34.132812 9.921875-18.855469 0-34.136719 6.515625-34.136719-9.921875s15.285156-29.761719 34.136719-29.761719c18.851562 0 34.132812 13.324219 34.132812 29.761719zm0 0" fill="#f53e28"/><g fill="#4c241d"><path d="m261.074219 109.226562c-3.039063 0-6.300781-.28125-9.726563-.582031-7.839844-.675781-16.558594-.675781-24.398437 0-9.59375.828125-17.894531 1.554688-23.683594-3.746093-3.371094-3.09375-5.078125-7.699219-5.078125-13.695313 0-20.175781 18.375-36.589844 40.960938-36.589844 22.585937 0 40.957031 16.414063 40.957031 36.589844 0 5.996094-1.707031 10.601563-5.078125 13.691406-3.71875 3.414063-8.480469 4.332031-13.953125 4.332031zm-21.925781-14.925781c4.816406 0 9.363281.394531 13.378906.742188 4.738281.414062 11.917968 1.03125 13.273437-.207031.179688-.167969.652344-1.144532.652344-3.632813 0-12.648437-12.246094-22.9375-27.304687-22.9375-15.0625 0-27.308594 10.289063-27.308594 22.9375 0 2.484375.472656 3.460937.652344 3.628906 1.363281 1.246094 8.535156.628907 13.273437.210938 4.015625-.347657 8.5625-.742188 13.382813-.742188zm0 0"/><path d="m177.707031 218.453125c-3.773437 0-6.828125-3.054687-6.828125-6.828125v-204.796875c0-3.773437 3.054688-6.828125 6.828125-6.828125 3.773438 0 6.828125 3.054688 6.828125 6.828125v204.796875c0 3.773438-3.054687 6.828125-6.828125 6.828125zm0 0"/><path d="m237.0625 380.375c-2.195312 0-4.347656-1.050781-5.660156-3.003906-2.113282-3.125-1.292969-7.367188 1.832031-9.480469 12.253906-8.277344 19.566406-22.035156 19.566406-36.796875 0-3.769531 3.050781-6.828125 6.824219-6.828125s6.828125 3.058594 6.828125 6.828125c0 19.304688-9.558594 37.289062-25.578125 48.113281-1.167969.789063-2.5 1.167969-3.8125 1.167969zm0 0"/></g></svg>